<svg width="16" height="16" viewBox="0 0 16 16" fill="none" xmlns="http://www.w3.org/2000/svg">
<path fill-rule="evenodd" clip-rule="evenodd" d="M3.05025 3.05024C1.7375 4.36299 1 6.14347 1 7.99999C1 9.8565 1.7375 11.637 3.05025 12.9497C4.36301 14.2625 6.14348 15 8 15C9.85652 15 11.637 14.2625 12.9497 12.9497C14.2625 11.637 15 9.8565 15 7.99999C15 6.14347 14.2625 4.36299 12.9497 3.05024C11.637 1.73749 9.85652 0.999988 8 0.999988C6.14348 0.999988 4.36301 1.73749 3.05025 3.05024V3.05024ZM13.6569 13.6568C12.1566 15.1571 10.1217 16 8 16C5.87827 16 3.84344 15.1571 2.34315 13.6568C0.842855 12.1566 -6.33464e-08 10.1217 -6.33464e-08 7.99999C-6.33464e-08 5.87826 0.842855 3.84342 2.34315 2.34313C3.84344 0.842842 5.87827 -1.21239e-05 8 -1.21239e-05C10.1217 -1.21239e-05 12.1566 0.842842 13.6569 2.34313C15.1571 3.84342 16 5.87826 16 7.99999C16 10.1217 15.1571 12.1566 13.6569 13.6568V13.6568ZM8.50063 4.46445C8.50063 4.33168 8.44789 4.20434 8.354 4.11045C8.26011 4.01657 8.13278 3.96382 8 3.96382C7.86722 3.96382 7.73989 4.01657 7.646 4.11045C7.55211 4.20434 7.49937 4.33168 7.49937 4.46445L7.50008 10.2578L5.5428 8.30051C5.44904 8.20674 5.32186 8.15406 5.18925 8.15406C5.05664 8.15406 4.92947 8.20674 4.8357 8.30051C4.74193 8.39428 4.68925 8.52145 4.68925 8.65406C4.68925 8.78667 4.74193 8.91385 4.8357 9.00761L7.64645 11.8184C7.74021 11.9121 7.86739 11.9648 8 11.9648C8.13261 11.9648 8.25979 11.9121 8.35355 11.8184L11.1643 9.00761C11.2581 8.91385 11.3107 8.78667 11.3107 8.65406C11.3107 8.52145 11.2581 8.39428 11.1643 8.30051C11.0705 8.20674 10.9434 8.15406 10.8107 8.15406C10.6781 8.15406 10.551 8.20674 10.4572 8.30051L8.49992 10.2578L8.50063 4.46445Z" fill="white"/>
</svg>
