<svg width="16" height="16" viewBox="0 0 16 16" fill="none" xmlns="http://www.w3.org/2000/svg">
<g clip-path="url(#clip0_90_25)">
<path fill-rule="evenodd" clip-rule="evenodd" d="M12.9497 12.9497C14.2625 11.637 15 9.85652 15 8C15 6.14349 14.2625 4.36301 12.9497 3.05025C11.637 1.7375 9.85652 1 8 1C6.14348 1 4.36301 1.7375 3.05025 3.05025C1.7375 4.36301 1 6.14349 1 8C1 9.85652 1.7375 11.637 3.05025 12.9497C4.36301 14.2625 6.14348 15 8 15C9.85652 15 11.637 14.2625 12.9497 12.9497ZM2.34315 2.34315C3.84344 0.842856 5.87827 0 8 0C10.1217 0 12.1566 0.842856 13.6569 2.34315C15.1571 3.84344 16 5.87827 16 8C16 10.1217 15.1571 12.1565 13.6569 13.6568C12.1566 15.1571 10.1217 16 8 16C5.87827 16 3.84344 15.1571 2.34315 13.6568C0.842855 12.1565 0 10.1217 0 8C0 5.87827 0.842855 3.84344 2.34315 2.34315ZM7.49937 11.5355C7.49937 11.6683 7.55211 11.7956 7.646 11.8895C7.73989 11.9834 7.86722 12.0361 8 12.0361C8.13278 12.0361 8.26011 11.9834 8.354 11.8895C8.44789 11.7956 8.50063 11.6683 8.50063 11.5355L8.49992 5.74221L10.4572 7.69948C10.551 7.79325 10.6781 7.84593 10.8107 7.84593C10.9434 7.84593 11.0705 7.79325 11.1643 7.69948C11.2581 7.60571 11.3107 7.47854 11.3107 7.34593C11.3107 7.21332 11.2581 7.08614 11.1643 6.99237L8.35355 4.18163C8.25979 4.08786 8.13261 4.03518 8 4.03518C7.86739 4.03518 7.74021 4.08786 7.64645 4.18163L4.8357 6.99237C4.74193 7.08614 4.68925 7.21332 4.68925 7.34593C4.68925 7.47854 4.74193 7.60571 4.8357 7.69948C4.92947 7.79325 5.05664 7.84593 5.18925 7.84593C5.32186 7.84593 5.44904 7.79325 5.5428 7.69948L7.50008 5.74221L7.49937 11.5355Z" fill="white"/>
</g>
<defs>
<clipPath id="clip0_90_25">
<rect width="16" height="16" fill="white"/>
</clipPath>
</defs>
</svg>
