<svg width="16" height="16" viewBox="0 0 16 16" fill="none" xmlns="http://www.w3.org/2000/svg">
<g clip-path="url(#clip0_90_23)">
<path fill-rule="evenodd" clip-rule="evenodd" d="M3.05025 3.05025C1.7375 4.363 1 6.14348 1 8C1 9.85651 1.7375 11.637 3.05025 12.9497C4.36301 14.2625 6.14348 15 8 15C9.85652 15 11.637 14.2625 12.9497 12.9497C14.2625 11.637 15 9.85651 15 8C15 6.14348 14.2625 4.363 12.9497 3.05025C11.637 1.7375 9.85652 1 8 1C6.14348 1 4.36301 1.7375 3.05025 3.05025ZM13.6569 13.6568C12.1566 15.1571 10.1217 16 8 16C5.87827 16 3.84344 15.1571 2.34315 13.6568C0.842855 12.1566 0 10.1217 0 8C0 5.87827 0.842855 3.84343 2.34315 2.34314C3.84344 0.842854 5.87827 0 8 0C10.1217 0 12.1566 0.842854 13.6569 2.34314C15.1571 3.84343 16 5.87827 16 8C16 10.1217 15.1571 12.1566 13.6569 13.6568ZM8.50063 4.46446C8.50063 4.33169 8.44789 4.20435 8.354 4.11046C8.26011 4.01658 8.13278 3.96383 8 3.96383C7.86722 3.96383 7.73989 4.01658 7.646 4.11046C7.55211 4.20435 7.49937 4.33169 7.49937 4.46446L7.50008 10.2578L5.5428 8.30052C5.44904 8.20675 5.32186 8.15407 5.18925 8.15407C5.05664 8.15407 4.92947 8.20675 4.8357 8.30052C4.74193 8.39429 4.68925 8.52146 4.68925 8.65407C4.68925 8.78668 4.74193 8.91386 4.8357 9.00762L7.64645 11.8184C7.74021 11.9121 7.86739 11.9648 8 11.9648C8.13261 11.9648 8.25979 11.9121 8.35355 11.8184L11.1643 9.00762C11.2581 8.91386 11.3107 8.78668 11.3107 8.65407C11.3107 8.52146 11.2581 8.39429 11.1643 8.30052C11.0705 8.20675 10.9434 8.15407 10.8107 8.15407C10.6781 8.15407 10.551 8.20675 10.4572 8.30052L8.49992 10.2578L8.50063 4.46446Z" fill="white"/>
</g>
<defs>
<clipPath id="clip0_90_23">
<rect width="16" height="16" fill="white"/>
</clipPath>
</defs>
</svg>
