<svg width="16" height="16" viewBox="0 0 16 16" fill="none" xmlns="http://www.w3.org/2000/svg">
<path fill-rule="evenodd" clip-rule="evenodd" d="M12.9497 12.9497C14.2625 11.637 15 9.8565 15 7.99998C15 6.14347 14.2625 4.36299 12.9497 3.05023C11.637 1.73748 9.85652 0.999983 8 0.999983C6.14348 0.999983 4.36301 1.73748 3.05025 3.05023C1.7375 4.36299 1 6.14347 1 7.99998C1 9.8565 1.7375 11.637 3.05025 12.9497C4.36301 14.2625 6.14348 15 8 15C9.85652 15 11.637 14.2625 12.9497 12.9497V12.9497ZM2.34315 2.34313C3.84344 0.842837 5.87827 -1.85203e-05 8 -1.85203e-05C10.1217 -1.85203e-05 12.1566 0.842837 13.6569 2.34313C15.1571 3.84342 16 5.87825 16 7.99998C16 10.1217 15.1571 12.1565 13.6569 13.6568C12.1566 15.1571 10.1217 16 8 16C5.87827 16 3.84344 15.1571 2.34315 13.6568C0.842855 12.1565 -6.33464e-08 10.1217 -6.33464e-08 7.99998C-6.33464e-08 5.87825 0.842855 3.84342 2.34315 2.34313V2.34313ZM7.49937 11.5355C7.49937 11.6683 7.55211 11.7956 7.646 11.8895C7.73989 11.9834 7.86722 12.0361 8 12.0361C8.13278 12.0361 8.26011 11.9834 8.354 11.8895C8.44789 11.7956 8.50063 11.6683 8.50063 11.5355L8.49992 5.74219L10.4572 7.69946C10.551 7.79323 10.6781 7.84591 10.8107 7.84591C10.9434 7.84591 11.0705 7.79323 11.1643 7.69946C11.2581 7.60569 11.3107 7.47852 11.3107 7.34591C11.3107 7.2133 11.2581 7.08612 11.1643 6.99235L8.35355 4.18161C8.25979 4.08784 8.13261 4.03516 8 4.03516C7.86739 4.03516 7.74021 4.08784 7.64645 4.18161L4.8357 6.99235C4.74193 7.08612 4.68925 7.2133 4.68925 7.34591C4.68925 7.47852 4.74193 7.60569 4.8357 7.69946C4.92947 7.79323 5.05664 7.84591 5.18925 7.84591C5.32186 7.84591 5.44904 7.79323 5.5428 7.69946L7.50008 5.74219L7.49937 11.5355Z" fill="black"/>
</svg>
