<svg width="250" height="250" viewBox="0 0 250 250" fill="none" xmlns="http://www.w3.org/2000/svg">
<g clip-path="url(#clip0_6_4827)">
<path d="M250 0H0V250H250V0Z" fill="white"/>
<path d="M83.3333 15.1515H75.7576V22.7272H83.3333V15.1515Z" fill="black"/>
<path d="M90.9093 15.1515H83.3335V22.7272H90.9093V15.1515Z" fill="black"/>
<path d="M106.061 15.1515H98.4849V22.7272H106.061V15.1515Z" fill="black"/>
<path d="M113.637 15.1515H106.061V22.7272H113.637V15.1515Z" fill="black"/>
<path d="M121.212 15.1515H113.636V22.7272H121.212V15.1515Z" fill="black"/>
<path d="M128.788 15.1515H121.212V22.7272H128.788V15.1515Z" fill="black"/>
<path d="M136.364 15.1515H128.788V22.7272H136.364V15.1515Z" fill="black"/>
<path d="M151.515 15.1515H143.939V22.7272H151.515V15.1515Z" fill="black"/>
<path d="M83.3333 22.7272H75.7576V30.303H83.3333V22.7272Z" fill="black"/>
<path d="M98.4849 22.7272H90.9092V30.303H98.4849V22.7272Z" fill="black"/>
<path d="M121.212 22.7272H113.636V30.303H121.212V22.7272Z" fill="black"/>
<path d="M128.788 22.7272H121.212V30.303H128.788V22.7272Z" fill="black"/>
<path d="M136.364 22.7272H128.788V30.303H136.364V22.7272Z" fill="black"/>
<path d="M151.515 22.7272H143.939V30.303H151.515V22.7272Z" fill="black"/>
<path d="M159.091 22.7272H151.515V30.303H159.091V22.7272Z" fill="black"/>
<path d="M166.667 22.7272H159.091V30.303H166.667V22.7272Z" fill="black"/>
<path d="M174.243 22.7272H166.667V30.303H174.243V22.7272Z" fill="black"/>
<path d="M83.3333 30.303H75.7576V37.8787H83.3333V30.303Z" fill="black"/>
<path d="M90.9093 30.303H83.3335V37.8787H90.9093V30.303Z" fill="black"/>
<path d="M121.212 30.303H113.636V37.8787H121.212V30.303Z" fill="black"/>
<path d="M128.788 30.303H121.212V37.8787H128.788V30.303Z" fill="black"/>
<path d="M159.091 30.303H151.515V37.8787H159.091V30.303Z" fill="black"/>
<path d="M166.667 30.303H159.091V37.8787H166.667V30.303Z" fill="black"/>
<path d="M174.243 30.303H166.667V37.8787H174.243V30.303Z" fill="black"/>
<path d="M90.9093 37.8788H83.3335V45.4545H90.9093V37.8788Z" fill="black"/>
<path d="M106.061 37.8788H98.4849V45.4545H106.061V37.8788Z" fill="black"/>
<path d="M113.637 37.8788H106.061V45.4545H113.637V37.8788Z" fill="black"/>
<path d="M128.788 37.8788H121.212V45.4545H128.788V37.8788Z" fill="black"/>
<path d="M136.364 37.8788H128.788V45.4545H136.364V37.8788Z" fill="black"/>
<path d="M151.515 37.8788H143.939V45.4545H151.515V37.8788Z" fill="black"/>
<path d="M174.243 37.8788H166.667V45.4545H174.243V37.8788Z" fill="black"/>
<path d="M83.3333 45.4545H75.7576V53.0303H83.3333V45.4545Z" fill="black"/>
<path d="M90.9093 45.4545H83.3335V53.0303H90.9093V45.4545Z" fill="black"/>
<path d="M106.061 45.4545H98.4849V53.0303H106.061V45.4545Z" fill="black"/>
<path d="M121.212 45.4545H113.636V53.0303H121.212V45.4545Z" fill="black"/>
<path d="M136.364 45.4545H128.788V53.0303H136.364V45.4545Z" fill="black"/>
<path d="M151.515 45.4545H143.939V53.0303H151.515V45.4545Z" fill="black"/>
<path d="M159.091 45.4545H151.515V53.0303H159.091V45.4545Z" fill="black"/>
<path d="M166.667 45.4545H159.091V53.0303H166.667V45.4545Z" fill="black"/>
<path d="M90.9093 53.0303H83.3335V60.606H90.9093V53.0303Z" fill="black"/>
<path d="M121.212 53.0303H113.636V60.606H121.212V53.0303Z" fill="black"/>
<path d="M128.788 53.0303H121.212V60.606H128.788V53.0303Z" fill="black"/>
<path d="M151.515 53.0303H143.939V60.606H151.515V53.0303Z" fill="black"/>
<path d="M83.3333 60.6061H75.7576V68.1818H83.3333V60.6061Z" fill="black"/>
<path d="M98.4849 60.6061H90.9092V68.1818H98.4849V60.6061Z" fill="black"/>
<path d="M113.637 60.6061H106.061V68.1818H113.637V60.6061Z" fill="black"/>
<path d="M128.788 60.6061H121.212V68.1818H128.788V60.6061Z" fill="black"/>
<path d="M143.94 60.6061H136.364V68.1818H143.94V60.6061Z" fill="black"/>
<path d="M159.091 60.6061H151.515V68.1818H159.091V60.6061Z" fill="black"/>
<path d="M174.243 60.6061H166.667V68.1818H174.243V60.6061Z" fill="black"/>
<path d="M90.9093 68.1818H83.3335V75.7576H90.9093V68.1818Z" fill="black"/>
<path d="M106.061 68.1818H98.4849V75.7576H106.061V68.1818Z" fill="black"/>
<path d="M128.788 68.1818H121.212V75.7576H128.788V68.1818Z" fill="black"/>
<path d="M22.7274 75.7576H15.1516V83.3333H22.7274V75.7576Z" fill="black"/>
<path d="M45.4547 75.7576H37.8789V83.3333H45.4547V75.7576Z" fill="black"/>
<path d="M53.0303 75.7576H45.4546V83.3333H53.0303V75.7576Z" fill="black"/>
<path d="M60.6063 75.7576H53.0305V83.3333H60.6063V75.7576Z" fill="black"/>
<path d="M68.182 75.7576H60.6062V83.3333H68.182V75.7576Z" fill="black"/>
<path d="M75.7576 75.7576H68.1819V83.3333H75.7576V75.7576Z" fill="black"/>
<path d="M83.3333 75.7576H75.7576V83.3333H83.3333V75.7576Z" fill="black"/>
<path d="M98.4849 75.7576H90.9092V83.3333H98.4849V75.7576Z" fill="black"/>
<path d="M121.212 75.7576H113.636V83.3333H121.212V75.7576Z" fill="black"/>
<path d="M128.788 75.7576H121.212V83.3333H128.788V75.7576Z" fill="black"/>
<path d="M136.364 75.7576H128.788V83.3333H136.364V75.7576Z" fill="black"/>
<path d="M143.94 75.7576H136.364V83.3333H143.94V75.7576Z" fill="black"/>
<path d="M151.515 75.7576H143.939V83.3333H151.515V75.7576Z" fill="black"/>
<path d="M181.818 75.7576H174.242V83.3333H181.818V75.7576Z" fill="black"/>
<path d="M204.545 75.7576H196.97V83.3333H204.545V75.7576Z" fill="black"/>
<path d="M219.697 75.7576H212.121V83.3333H219.697V75.7576Z" fill="black"/>
<path d="M227.273 75.7576H219.697V83.3333H227.273V75.7576Z" fill="black"/>
<path d="M234.849 75.7576H227.273V83.3333H234.849V75.7576Z" fill="black"/>
<path d="M37.879 83.3333H30.3032V90.9091H37.879V83.3333Z" fill="black"/>
<path d="M45.4547 83.3333H37.8789V90.9091H45.4547V83.3333Z" fill="black"/>
<path d="M53.0303 83.3333H45.4546V90.9091H53.0303V83.3333Z" fill="black"/>
<path d="M75.7576 83.3333H68.1819V90.9091H75.7576V83.3333Z" fill="black"/>
<path d="M90.9093 83.3333H83.3335V90.9091H90.9093V83.3333Z" fill="black"/>
<path d="M113.637 83.3333H106.061V90.9091H113.637V83.3333Z" fill="black"/>
<path d="M128.788 83.3333H121.212V90.9091H128.788V83.3333Z" fill="black"/>
<path d="M166.667 83.3333H159.091V90.9091H166.667V83.3333Z" fill="black"/>
<path d="M181.818 83.3333H174.242V90.9091H181.818V83.3333Z" fill="black"/>
<path d="M196.97 83.3333H189.394V90.9091H196.97V83.3333Z" fill="black"/>
<path d="M204.545 83.3333H196.97V90.9091H204.545V83.3333Z" fill="black"/>
<path d="M219.697 83.3333H212.121V90.9091H219.697V83.3333Z" fill="black"/>
<path d="M227.273 83.3333H219.697V90.9091H227.273V83.3333Z" fill="black"/>
<path d="M30.3031 90.9091H22.7273V98.4848H30.3031V90.9091Z" fill="black"/>
<path d="M45.4547 90.9091H37.8789V98.4848H45.4547V90.9091Z" fill="black"/>
<path d="M68.182 90.9091H60.6062V98.4848H68.182V90.9091Z" fill="black"/>
<path d="M75.7576 90.9091H68.1819V98.4848H75.7576V90.9091Z" fill="black"/>
<path d="M83.3333 90.9091H75.7576V98.4848H83.3333V90.9091Z" fill="black"/>
<path d="M113.637 90.9091H106.061V98.4848H113.637V90.9091Z" fill="black"/>
<path d="M128.788 90.9091H121.212V98.4848H128.788V90.9091Z" fill="black"/>
<path d="M196.97 90.9091H189.394V98.4848H196.97V90.9091Z" fill="black"/>
<path d="M204.545 90.9091H196.97V98.4848H204.545V90.9091Z" fill="black"/>
<path d="M219.697 90.9091H212.121V98.4848H219.697V90.9091Z" fill="black"/>
<path d="M22.7274 98.4848H15.1516V106.061H22.7274V98.4848Z" fill="black"/>
<path d="M30.3031 98.4848H22.7273V106.061H30.3031V98.4848Z" fill="black"/>
<path d="M53.0303 98.4848H45.4546V106.061H53.0303V98.4848Z" fill="black"/>
<path d="M75.7576 98.4848H68.1819V106.061H75.7576V98.4848Z" fill="black"/>
<path d="M83.3333 98.4848H75.7576V106.061H83.3333V98.4848Z" fill="black"/>
<path d="M106.061 98.4848H98.4849V106.061H106.061V98.4848Z" fill="black"/>
<path d="M128.788 98.4848H121.212V106.061H128.788V98.4848Z" fill="black"/>
<path d="M136.364 98.4848H128.788V106.061H136.364V98.4848Z" fill="black"/>
<path d="M151.515 98.4848H143.939V106.061H151.515V98.4848Z" fill="black"/>
<path d="M181.818 98.4848H174.242V106.061H181.818V98.4848Z" fill="black"/>
<path d="M189.394 98.4848H181.818V106.061H189.394V98.4848Z" fill="black"/>
<path d="M196.97 98.4848H189.394V106.061H196.97V98.4848Z" fill="black"/>
<path d="M212.121 98.4848H204.546V106.061H212.121V98.4848Z" fill="black"/>
<path d="M234.849 98.4848H227.273V106.061H234.849V98.4848Z" fill="black"/>
<path d="M37.879 106.061H30.3032V113.636H37.879V106.061Z" fill="black"/>
<path d="M45.4547 106.061H37.8789V113.636H45.4547V106.061Z" fill="black"/>
<path d="M53.0303 106.061H45.4546V113.636H53.0303V106.061Z" fill="black"/>
<path d="M68.182 106.061H60.6062V113.636H68.182V106.061Z" fill="black"/>
<path d="M90.9093 106.061H83.3335V113.636H90.9093V106.061Z" fill="black"/>
<path d="M113.637 106.061H106.061V113.636H113.637V106.061Z" fill="black"/>
<path d="M121.212 106.061H113.636V113.636H121.212V106.061Z" fill="black"/>
<path d="M128.788 106.061H121.212V113.636H128.788V106.061Z" fill="black"/>
<path d="M151.515 106.061H143.939V113.636H151.515V106.061Z" fill="black"/>
<path d="M166.667 106.061H159.091V113.636H166.667V106.061Z" fill="black"/>
<path d="M174.243 106.061H166.667V113.636H174.243V106.061Z" fill="black"/>
<path d="M189.394 106.061H181.818V113.636H189.394V106.061Z" fill="black"/>
<path d="M196.97 106.061H189.394V113.636H196.97V106.061Z" fill="black"/>
<path d="M234.849 106.061H227.273V113.636H234.849V106.061Z" fill="black"/>
<path d="M22.7274 113.636H15.1516V121.212H22.7274V113.636Z" fill="black"/>
<path d="M37.879 113.636H30.3032V121.212H37.879V113.636Z" fill="black"/>
<path d="M53.0303 113.636H45.4546V121.212H53.0303V113.636Z" fill="black"/>
<path d="M75.7576 113.636H68.1819V121.212H75.7576V113.636Z" fill="black"/>
<path d="M83.3333 113.636H75.7576V121.212H83.3333V113.636Z" fill="black"/>
<path d="M90.9093 113.636H83.3335V121.212H90.9093V113.636Z" fill="black"/>
<path d="M98.4849 113.636H90.9092V121.212H98.4849V113.636Z" fill="black"/>
<path d="M113.637 113.636H106.061V121.212H113.637V113.636Z" fill="black"/>
<path d="M159.091 113.636H151.515V121.212H159.091V113.636Z" fill="black"/>
<path d="M166.667 113.636H159.091V121.212H166.667V113.636Z" fill="black"/>
<path d="M189.394 113.636H181.818V121.212H189.394V113.636Z" fill="black"/>
<path d="M196.97 113.636H189.394V121.212H196.97V113.636Z" fill="black"/>
<path d="M204.545 113.636H196.97V121.212H204.545V113.636Z" fill="black"/>
<path d="M212.121 113.636H204.546V121.212H212.121V113.636Z" fill="black"/>
<path d="M219.697 113.636H212.121V121.212H219.697V113.636Z" fill="black"/>
<path d="M227.273 113.636H219.697V121.212H227.273V113.636Z" fill="black"/>
<path d="M234.849 113.636H227.273V121.212H234.849V113.636Z" fill="black"/>
<path d="M22.7274 121.212H15.1516V128.788H22.7274V121.212Z" fill="black"/>
<path d="M30.3031 121.212H22.7273V128.788H30.3031V121.212Z" fill="black"/>
<path d="M45.4547 121.212H37.8789V128.788H45.4547V121.212Z" fill="black"/>
<path d="M53.0303 121.212H45.4546V128.788H53.0303V121.212Z" fill="black"/>
<path d="M68.182 121.212H60.6062V128.788H68.182V121.212Z" fill="black"/>
<path d="M83.3333 121.212H75.7576V128.788H83.3333V121.212Z" fill="black"/>
<path d="M98.4849 121.212H90.9092V128.788H98.4849V121.212Z" fill="black"/>
<path d="M106.061 121.212H98.4849V128.788H106.061V121.212Z" fill="black"/>
<path d="M113.637 121.212H106.061V128.788H113.637V121.212Z" fill="black"/>
<path d="M128.788 121.212H121.212V128.788H128.788V121.212Z" fill="black"/>
<path d="M136.364 121.212H128.788V128.788H136.364V121.212Z" fill="black"/>
<path d="M151.515 121.212H143.939V128.788H151.515V121.212Z" fill="black"/>
<path d="M159.091 121.212H151.515V128.788H159.091V121.212Z" fill="black"/>
<path d="M166.667 121.212H159.091V128.788H166.667V121.212Z" fill="black"/>
<path d="M174.243 121.212H166.667V128.788H174.243V121.212Z" fill="black"/>
<path d="M181.818 121.212H174.242V128.788H181.818V121.212Z" fill="black"/>
<path d="M189.394 121.212H181.818V128.788H189.394V121.212Z" fill="black"/>
<path d="M204.545 121.212H196.97V128.788H204.545V121.212Z" fill="black"/>
<path d="M219.697 121.212H212.121V128.788H219.697V121.212Z" fill="black"/>
<path d="M234.849 121.212H227.273V128.788H234.849V121.212Z" fill="black"/>
<path d="M22.7274 128.788H15.1516V136.364H22.7274V128.788Z" fill="black"/>
<path d="M60.6063 128.788H53.0305V136.364H60.6063V128.788Z" fill="black"/>
<path d="M83.3333 128.788H75.7576V136.364H83.3333V128.788Z" fill="black"/>
<path d="M90.9093 128.788H83.3335V136.364H90.9093V128.788Z" fill="black"/>
<path d="M98.4849 128.788H90.9092V136.364H98.4849V128.788Z" fill="black"/>
<path d="M106.061 128.788H98.4849V136.364H106.061V128.788Z" fill="black"/>
<path d="M121.212 128.788H113.636V136.364H121.212V128.788Z" fill="black"/>
<path d="M128.788 128.788H121.212V136.364H128.788V128.788Z" fill="black"/>
<path d="M143.94 128.788H136.364V136.364H143.94V128.788Z" fill="black"/>
<path d="M159.091 128.788H151.515V136.364H159.091V128.788Z" fill="black"/>
<path d="M166.667 128.788H159.091V136.364H166.667V128.788Z" fill="black"/>
<path d="M196.97 128.788H189.394V136.364H196.97V128.788Z" fill="black"/>
<path d="M204.545 128.788H196.97V136.364H204.545V128.788Z" fill="black"/>
<path d="M219.697 128.788H212.121V136.364H219.697V128.788Z" fill="black"/>
<path d="M234.849 128.788H227.273V136.364H234.849V128.788Z" fill="black"/>
<path d="M22.7274 136.364H15.1516V143.939H22.7274V136.364Z" fill="black"/>
<path d="M30.3031 136.364H22.7273V143.939H30.3031V136.364Z" fill="black"/>
<path d="M53.0303 136.364H45.4546V143.939H53.0303V136.364Z" fill="black"/>
<path d="M68.182 136.364H60.6062V143.939H68.182V136.364Z" fill="black"/>
<path d="M83.3333 136.364H75.7576V143.939H83.3333V136.364Z" fill="black"/>
<path d="M90.9093 136.364H83.3335V143.939H90.9093V136.364Z" fill="black"/>
<path d="M98.4849 136.364H90.9092V143.939H98.4849V136.364Z" fill="black"/>
<path d="M136.364 136.364H128.788V143.939H136.364V136.364Z" fill="black"/>
<path d="M166.667 136.364H159.091V143.939H166.667V136.364Z" fill="black"/>
<path d="M174.243 136.364H166.667V143.939H174.243V136.364Z" fill="black"/>
<path d="M181.818 136.364H174.242V143.939H181.818V136.364Z" fill="black"/>
<path d="M212.121 136.364H204.546V143.939H212.121V136.364Z" fill="black"/>
<path d="M22.7274 143.939H15.1516V151.515H22.7274V143.939Z" fill="black"/>
<path d="M53.0303 143.939H45.4546V151.515H53.0303V143.939Z" fill="black"/>
<path d="M75.7576 143.939H68.1819V151.515H75.7576V143.939Z" fill="black"/>
<path d="M83.3333 143.939H75.7576V151.515H83.3333V143.939Z" fill="black"/>
<path d="M90.9093 143.939H83.3335V151.515H90.9093V143.939Z" fill="black"/>
<path d="M98.4849 143.939H90.9092V151.515H98.4849V143.939Z" fill="black"/>
<path d="M113.637 143.939H106.061V151.515H113.637V143.939Z" fill="black"/>
<path d="M151.515 143.939H143.939V151.515H151.515V143.939Z" fill="black"/>
<path d="M159.091 143.939H151.515V151.515H159.091V143.939Z" fill="black"/>
<path d="M166.667 143.939H159.091V151.515H166.667V143.939Z" fill="black"/>
<path d="M204.545 143.939H196.97V151.515H204.545V143.939Z" fill="black"/>
<path d="M219.697 143.939H212.121V151.515H219.697V143.939Z" fill="black"/>
<path d="M227.273 143.939H219.697V151.515H227.273V143.939Z" fill="black"/>
<path d="M22.7274 151.515H15.1516V159.091H22.7274V151.515Z" fill="black"/>
<path d="M30.3031 151.515H22.7273V159.091H30.3031V151.515Z" fill="black"/>
<path d="M45.4547 151.515H37.8789V159.091H45.4547V151.515Z" fill="black"/>
<path d="M60.6063 151.515H53.0305V159.091H60.6063V151.515Z" fill="black"/>
<path d="M68.182 151.515H60.6062V159.091H68.182V151.515Z" fill="black"/>
<path d="M75.7576 151.515H68.1819V159.091H75.7576V151.515Z" fill="black"/>
<path d="M90.9093 151.515H83.3335V159.091H90.9093V151.515Z" fill="black"/>
<path d="M98.4849 151.515H90.9092V159.091H98.4849V151.515Z" fill="black"/>
<path d="M106.061 151.515H98.4849V159.091H106.061V151.515Z" fill="black"/>
<path d="M121.212 151.515H113.636V159.091H121.212V151.515Z" fill="black"/>
<path d="M128.788 151.515H121.212V159.091H128.788V151.515Z" fill="black"/>
<path d="M143.94 151.515H136.364V159.091H143.94V151.515Z" fill="black"/>
<path d="M151.515 151.515H143.939V159.091H151.515V151.515Z" fill="black"/>
<path d="M159.091 151.515H151.515V159.091H159.091V151.515Z" fill="black"/>
<path d="M166.667 151.515H159.091V159.091H166.667V151.515Z" fill="black"/>
<path d="M204.545 151.515H196.97V159.091H204.545V151.515Z" fill="black"/>
<path d="M212.121 151.515H204.546V159.091H212.121V151.515Z" fill="black"/>
<path d="M234.849 151.515H227.273V159.091H234.849V151.515Z" fill="black"/>
<path d="M22.7274 159.091H15.1516V166.667H22.7274V159.091Z" fill="black"/>
<path d="M30.3031 159.091H22.7273V166.667H30.3031V159.091Z" fill="black"/>
<path d="M37.879 159.091H30.3032V166.667H37.879V159.091Z" fill="black"/>
<path d="M45.4547 159.091H37.8789V166.667H45.4547V159.091Z" fill="black"/>
<path d="M60.6063 159.091H53.0305V166.667H60.6063V159.091Z" fill="black"/>
<path d="M75.7576 159.091H68.1819V166.667H75.7576V159.091Z" fill="black"/>
<path d="M83.3333 159.091H75.7576V166.667H83.3333V159.091Z" fill="black"/>
<path d="M90.9093 159.091H83.3335V166.667H90.9093V159.091Z" fill="black"/>
<path d="M98.4849 159.091H90.9092V166.667H98.4849V159.091Z" fill="black"/>
<path d="M106.061 159.091H98.4849V166.667H106.061V159.091Z" fill="black"/>
<path d="M113.637 159.091H106.061V166.667H113.637V159.091Z" fill="black"/>
<path d="M121.212 159.091H113.636V166.667H121.212V159.091Z" fill="black"/>
<path d="M136.364 159.091H128.788V166.667H136.364V159.091Z" fill="black"/>
<path d="M143.94 159.091H136.364V166.667H143.94V159.091Z" fill="black"/>
<path d="M166.667 159.091H159.091V166.667H166.667V159.091Z" fill="black"/>
<path d="M189.394 159.091H181.818V166.667H189.394V159.091Z" fill="black"/>
<path d="M212.121 159.091H204.546V166.667H212.121V159.091Z" fill="black"/>
<path d="M219.697 159.091H212.121V166.667H219.697V159.091Z" fill="black"/>
<path d="M22.7274 166.667H15.1516V174.242H22.7274V166.667Z" fill="black"/>
<path d="M30.3031 166.667H22.7273V174.242H30.3031V166.667Z" fill="black"/>
<path d="M37.879 166.667H30.3032V174.242H37.879V166.667Z" fill="black"/>
<path d="M45.4547 166.667H37.8789V174.242H45.4547V166.667Z" fill="black"/>
<path d="M53.0303 166.667H45.4546V174.242H53.0303V166.667Z" fill="black"/>
<path d="M60.6063 166.667H53.0305V174.242H60.6063V166.667Z" fill="black"/>
<path d="M68.182 166.667H60.6062V174.242H68.182V166.667Z" fill="black"/>
<path d="M90.9093 166.667H83.3335V174.242H90.9093V166.667Z" fill="black"/>
<path d="M106.061 166.667H98.4849V174.242H106.061V166.667Z" fill="black"/>
<path d="M121.212 166.667H113.636V174.242H121.212V166.667Z" fill="black"/>
<path d="M143.94 166.667H136.364V174.242H143.94V166.667Z" fill="black"/>
<path d="M151.515 166.667H143.939V174.242H151.515V166.667Z" fill="black"/>
<path d="M174.243 166.667H166.667V174.242H174.243V166.667Z" fill="black"/>
<path d="M181.818 166.667H174.242V174.242H181.818V166.667Z" fill="black"/>
<path d="M189.394 166.667H181.818V174.242H189.394V166.667Z" fill="black"/>
<path d="M196.97 166.667H189.394V174.242H196.97V166.667Z" fill="black"/>
<path d="M204.545 166.667H196.97V174.242H204.545V166.667Z" fill="black"/>
<path d="M212.121 166.667H204.546V174.242H212.121V166.667Z" fill="black"/>
<path d="M219.697 166.667H212.121V174.242H219.697V166.667Z" fill="black"/>
<path d="M227.273 166.667H219.697V174.242H227.273V166.667Z" fill="black"/>
<path d="M83.3333 174.242H75.7576V181.818H83.3333V174.242Z" fill="black"/>
<path d="M90.9093 174.242H83.3335V181.818H90.9093V174.242Z" fill="black"/>
<path d="M98.4849 174.242H90.9092V181.818H98.4849V174.242Z" fill="black"/>
<path d="M106.061 174.242H98.4849V181.818H106.061V174.242Z" fill="black"/>
<path d="M113.637 174.242H106.061V181.818H113.637V174.242Z" fill="black"/>
<path d="M121.212 174.242H113.636V181.818H121.212V174.242Z" fill="black"/>
<path d="M143.94 174.242H136.364V181.818H143.94V174.242Z" fill="black"/>
<path d="M174.243 174.242H166.667V181.818H174.243V174.242Z" fill="black"/>
<path d="M204.545 174.242H196.97V181.818H204.545V174.242Z" fill="black"/>
<path d="M212.121 174.242H204.546V181.818H212.121V174.242Z" fill="black"/>
<path d="M83.3333 181.818H75.7576V189.394H83.3333V181.818Z" fill="black"/>
<path d="M113.637 181.818H106.061V189.394H113.637V181.818Z" fill="black"/>
<path d="M121.212 181.818H113.636V189.394H121.212V181.818Z" fill="black"/>
<path d="M136.364 181.818H128.788V189.394H136.364V181.818Z" fill="black"/>
<path d="M143.94 181.818H136.364V189.394H143.94V181.818Z" fill="black"/>
<path d="M166.667 181.818H159.091V189.394H166.667V181.818Z" fill="black"/>
<path d="M174.243 181.818H166.667V189.394H174.243V181.818Z" fill="black"/>
<path d="M189.394 181.818H181.818V189.394H189.394V181.818Z" fill="black"/>
<path d="M204.545 181.818H196.97V189.394H204.545V181.818Z" fill="black"/>
<path d="M212.121 181.818H204.546V189.394H212.121V181.818Z" fill="black"/>
<path d="M83.3333 189.394H75.7576V196.97H83.3333V189.394Z" fill="black"/>
<path d="M90.9093 189.394H83.3335V196.97H90.9093V189.394Z" fill="black"/>
<path d="M98.4849 189.394H90.9092V196.97H98.4849V189.394Z" fill="black"/>
<path d="M113.637 189.394H106.061V196.97H113.637V189.394Z" fill="black"/>
<path d="M121.212 189.394H113.636V196.97H121.212V189.394Z" fill="black"/>
<path d="M143.94 189.394H136.364V196.97H143.94V189.394Z" fill="black"/>
<path d="M151.515 189.394H143.939V196.97H151.515V189.394Z" fill="black"/>
<path d="M159.091 189.394H151.515V196.97H159.091V189.394Z" fill="black"/>
<path d="M166.667 189.394H159.091V196.97H166.667V189.394Z" fill="black"/>
<path d="M174.243 189.394H166.667V196.97H174.243V189.394Z" fill="black"/>
<path d="M204.545 189.394H196.97V196.97H204.545V189.394Z" fill="black"/>
<path d="M227.273 189.394H219.697V196.97H227.273V189.394Z" fill="black"/>
<path d="M83.3333 196.97H75.7576V204.545H83.3333V196.97Z" fill="black"/>
<path d="M106.061 196.97H98.4849V204.545H106.061V196.97Z" fill="black"/>
<path d="M113.637 196.97H106.061V204.545H113.637V196.97Z" fill="black"/>
<path d="M121.212 196.97H113.636V204.545H121.212V196.97Z" fill="black"/>
<path d="M136.364 196.97H128.788V204.545H136.364V196.97Z" fill="black"/>
<path d="M143.94 196.97H136.364V204.545H143.94V196.97Z" fill="black"/>
<path d="M166.667 196.97H159.091V204.545H166.667V196.97Z" fill="black"/>
<path d="M174.243 196.97H166.667V204.545H174.243V196.97Z" fill="black"/>
<path d="M181.818 196.97H174.242V204.545H181.818V196.97Z" fill="black"/>
<path d="M189.394 196.97H181.818V204.545H189.394V196.97Z" fill="black"/>
<path d="M196.97 196.97H189.394V204.545H196.97V196.97Z" fill="black"/>
<path d="M204.545 196.97H196.97V204.545H204.545V196.97Z" fill="black"/>
<path d="M212.121 196.97H204.546V204.545H212.121V196.97Z" fill="black"/>
<path d="M83.3333 204.546H75.7576V212.121H83.3333V204.546Z" fill="black"/>
<path d="M98.4849 204.546H90.9092V212.121H98.4849V204.546Z" fill="black"/>
<path d="M113.637 204.546H106.061V212.121H113.637V204.546Z" fill="black"/>
<path d="M128.788 204.546H121.212V212.121H128.788V204.546Z" fill="black"/>
<path d="M136.364 204.546H128.788V212.121H136.364V204.546Z" fill="black"/>
<path d="M143.94 204.546H136.364V212.121H143.94V204.546Z" fill="black"/>
<path d="M151.515 204.546H143.939V212.121H151.515V204.546Z" fill="black"/>
<path d="M181.818 204.546H174.242V212.121H181.818V204.546Z" fill="black"/>
<path d="M227.273 204.546H219.697V212.121H227.273V204.546Z" fill="black"/>
<path d="M90.9093 212.121H83.3335V219.697H90.9093V212.121Z" fill="black"/>
<path d="M98.4849 212.121H90.9092V219.697H98.4849V212.121Z" fill="black"/>
<path d="M106.061 212.121H98.4849V219.697H106.061V212.121Z" fill="black"/>
<path d="M128.788 212.121H121.212V219.697H128.788V212.121Z" fill="black"/>
<path d="M136.364 212.121H128.788V219.697H136.364V212.121Z" fill="black"/>
<path d="M159.091 212.121H151.515V219.697H159.091V212.121Z" fill="black"/>
<path d="M174.243 212.121H166.667V219.697H174.243V212.121Z" fill="black"/>
<path d="M181.818 212.121H174.242V219.697H181.818V212.121Z" fill="black"/>
<path d="M196.97 212.121H189.394V219.697H196.97V212.121Z" fill="black"/>
<path d="M204.545 212.121H196.97V219.697H204.545V212.121Z" fill="black"/>
<path d="M219.697 212.121H212.121V219.697H219.697V212.121Z" fill="black"/>
<path d="M227.273 212.121H219.697V219.697H227.273V212.121Z" fill="black"/>
<path d="M234.849 212.121H227.273V219.697H234.849V212.121Z" fill="black"/>
<path d="M90.9093 219.697H83.3335V227.273H90.9093V219.697Z" fill="black"/>
<path d="M121.212 219.697H113.636V227.273H121.212V219.697Z" fill="black"/>
<path d="M136.364 219.697H128.788V227.273H136.364V219.697Z" fill="black"/>
<path d="M143.94 219.697H136.364V227.273H143.94V219.697Z" fill="black"/>
<path d="M189.394 219.697H181.818V227.273H189.394V219.697Z" fill="black"/>
<path d="M196.97 219.697H189.394V227.273H196.97V219.697Z" fill="black"/>
<path d="M212.121 219.697H204.546V227.273H212.121V219.697Z" fill="black"/>
<path d="M219.697 219.697H212.121V227.273H219.697V219.697Z" fill="black"/>
<path d="M234.849 219.697H227.273V227.273H234.849V219.697Z" fill="black"/>
<path d="M83.3333 227.273H75.7576V234.848H83.3333V227.273Z" fill="black"/>
<path d="M90.9093 227.273H83.3335V234.848H90.9093V227.273Z" fill="black"/>
<path d="M113.637 227.273H106.061V234.848H113.637V227.273Z" fill="black"/>
<path d="M128.788 227.273H121.212V234.848H128.788V227.273Z" fill="black"/>
<path d="M166.667 227.273H159.091V234.848H166.667V227.273Z" fill="black"/>
<path d="M174.243 227.273H166.667V234.848H174.243V227.273Z" fill="black"/>
<path d="M189.394 227.273H181.818V234.848H189.394V227.273Z" fill="black"/>
<path d="M204.545 227.273H196.97V234.848H204.545V227.273Z" fill="black"/>
<path d="M60.2274 15.1515H23.1062H15.1516V23.106V60.2273V68.1818H23.1062H60.2274H68.1819V60.2273V23.106V15.1515H60.2274ZM60.2274 60.2273H23.1062V23.106H60.2274V60.2273Z" fill="black"/>
<path d="M226.894 15.1515H189.773H181.818V23.106V60.2273V68.1818H189.773H226.894H234.849V60.2273V23.106V15.1515H226.894ZM226.894 60.2273H189.773V23.106H226.894V60.2273Z" fill="black"/>
<path d="M60.2274 181.818H23.1062H15.1516V189.773V226.894V234.848H23.1062H60.2274H68.1819V226.894V189.773V181.818H60.2274ZM60.2274 226.894H23.1062V189.773H60.2274V226.894Z" fill="black"/>
<path d="M53.0305 30.303H30.3032V53.0303H53.0305V30.303Z" fill="black"/>
<path d="M219.697 30.303H196.97V53.0303H219.697V30.303Z" fill="black"/>
<path d="M53.0305 196.97H30.3032V219.697H53.0305V196.97Z" fill="black"/>
</g>
<defs>
<clipPath id="clip0_6_4827">
<rect width="250" height="250" fill="white"/>
</clipPath>
</defs>
</svg>
