<svg width="250" height="250" viewBox="0 0 250 250" fill="none" xmlns="http://www.w3.org/2000/svg">
<g clip-path="url(#clip0_6_4160)">
<path d="M250 0H0V250H250V0Z" fill="white"/>
<path d="M103.448 17.2414H94.8276V25.8621H103.448V17.2414Z" fill="black"/>
<path d="M112.069 17.2414H103.448V25.8621H112.069V17.2414Z" fill="black"/>
<path d="M129.31 17.2414H120.69V25.8621H129.31V17.2414Z" fill="black"/>
<path d="M146.552 17.2414H137.931V25.8621H146.552V17.2414Z" fill="black"/>
<path d="M155.172 17.2414H146.552V25.8621H155.172V17.2414Z" fill="black"/>
<path d="M94.8277 25.8621H86.207V34.4828H94.8277V25.8621Z" fill="black"/>
<path d="M103.448 25.8621H94.8276V34.4828H103.448V25.8621Z" fill="black"/>
<path d="M137.931 25.8621H129.31V34.4828H137.931V25.8621Z" fill="black"/>
<path d="M146.552 25.8621H137.931V34.4828H146.552V25.8621Z" fill="black"/>
<path d="M155.172 25.8621H146.552V34.4828H155.172V25.8621Z" fill="black"/>
<path d="M112.069 34.4828H103.448V43.1034H112.069V34.4828Z" fill="black"/>
<path d="M120.69 34.4828H112.069V43.1034H120.69V34.4828Z" fill="black"/>
<path d="M129.31 34.4828H120.69V43.1034H129.31V34.4828Z" fill="black"/>
<path d="M155.172 34.4828H146.552V43.1034H155.172V34.4828Z" fill="black"/>
<path d="M163.793 34.4828H155.173V43.1034H163.793V34.4828Z" fill="black"/>
<path d="M120.69 43.1035H112.069V51.7241H120.69V43.1035Z" fill="black"/>
<path d="M146.552 43.1035H137.931V51.7241H146.552V43.1035Z" fill="black"/>
<path d="M155.172 43.1035H146.552V51.7241H155.172V43.1035Z" fill="black"/>
<path d="M163.793 43.1035H155.173V51.7241H163.793V43.1035Z" fill="black"/>
<path d="M94.8277 51.7242H86.207V60.3448H94.8277V51.7242Z" fill="black"/>
<path d="M103.448 51.7242H94.8276V60.3448H103.448V51.7242Z" fill="black"/>
<path d="M120.69 51.7242H112.069V60.3448H120.69V51.7242Z" fill="black"/>
<path d="M129.31 51.7242H120.69V60.3448H129.31V51.7242Z" fill="black"/>
<path d="M155.172 51.7242H146.552V60.3448H155.172V51.7242Z" fill="black"/>
<path d="M103.448 60.3448H94.8276V68.9655H103.448V60.3448Z" fill="black"/>
<path d="M112.069 60.3448H103.448V68.9655H112.069V60.3448Z" fill="black"/>
<path d="M146.552 60.3448H137.931V68.9655H146.552V60.3448Z" fill="black"/>
<path d="M155.172 60.3448H146.552V68.9655H155.172V60.3448Z" fill="black"/>
<path d="M94.8277 68.9655H86.207V77.5862H94.8277V68.9655Z" fill="black"/>
<path d="M112.069 68.9655H103.448V77.5862H112.069V68.9655Z" fill="black"/>
<path d="M129.31 68.9655H120.69V77.5862H129.31V68.9655Z" fill="black"/>
<path d="M146.552 68.9655H137.931V77.5862H146.552V68.9655Z" fill="black"/>
<path d="M163.793 68.9655H155.173V77.5862H163.793V68.9655Z" fill="black"/>
<path d="M112.069 77.5862H103.448V86.2069H112.069V77.5862Z" fill="black"/>
<path d="M129.31 77.5862H120.69V86.2069H129.31V77.5862Z" fill="black"/>
<path d="M137.931 77.5862H129.31V86.2069H137.931V77.5862Z" fill="black"/>
<path d="M146.552 77.5862H137.931V86.2069H146.552V77.5862Z" fill="black"/>
<path d="M155.172 77.5862H146.552V86.2069H155.172V77.5862Z" fill="black"/>
<path d="M163.793 77.5862H155.173V86.2069H163.793V77.5862Z" fill="black"/>
<path d="M25.8621 86.2069H17.2415V94.8276H25.8621V86.2069Z" fill="black"/>
<path d="M43.1036 86.2069H34.4829V94.8276H43.1036V86.2069Z" fill="black"/>
<path d="M60.3448 86.2069H51.7241V94.8276H60.3448V86.2069Z" fill="black"/>
<path d="M77.5863 86.2069H68.9656V94.8276H77.5863V86.2069Z" fill="black"/>
<path d="M112.069 86.2069H103.448V94.8276H112.069V86.2069Z" fill="black"/>
<path d="M120.69 86.2069H112.069V94.8276H120.69V86.2069Z" fill="black"/>
<path d="M129.31 86.2069H120.69V94.8276H129.31V86.2069Z" fill="black"/>
<path d="M163.793 86.2069H155.173V94.8276H163.793V86.2069Z" fill="black"/>
<path d="M198.276 86.2069H189.655V94.8276H198.276V86.2069Z" fill="black"/>
<path d="M224.138 86.2069H215.517V94.8276H224.138V86.2069Z" fill="black"/>
<path d="M60.3448 94.8276H51.7241V103.448H60.3448V94.8276Z" fill="black"/>
<path d="M68.9657 94.8276H60.345V103.448H68.9657V94.8276Z" fill="black"/>
<path d="M94.8277 94.8276H86.207V103.448H94.8277V94.8276Z" fill="black"/>
<path d="M103.448 94.8276H94.8276V103.448H103.448V94.8276Z" fill="black"/>
<path d="M112.069 94.8276H103.448V103.448H112.069V94.8276Z" fill="black"/>
<path d="M120.69 94.8276H112.069V103.448H120.69V94.8276Z" fill="black"/>
<path d="M137.931 94.8276H129.31V103.448H137.931V94.8276Z" fill="black"/>
<path d="M163.793 94.8276H155.173V103.448H163.793V94.8276Z" fill="black"/>
<path d="M172.414 94.8276H163.793V103.448H172.414V94.8276Z" fill="black"/>
<path d="M181.035 94.8276H172.414V103.448H181.035V94.8276Z" fill="black"/>
<path d="M189.655 94.8276H181.035V103.448H189.655V94.8276Z" fill="black"/>
<path d="M232.759 94.8276H224.138V103.448H232.759V94.8276Z" fill="black"/>
<path d="M34.4828 103.448H25.8621V112.069H34.4828V103.448Z" fill="black"/>
<path d="M77.5863 103.448H68.9656V112.069H77.5863V103.448Z" fill="black"/>
<path d="M86.2069 103.448H77.5862V112.069H86.2069V103.448Z" fill="black"/>
<path d="M94.8277 103.448H86.207V112.069H94.8277V103.448Z" fill="black"/>
<path d="M112.069 103.448H103.448V112.069H112.069V103.448Z" fill="black"/>
<path d="M137.931 103.448H129.31V112.069H137.931V103.448Z" fill="black"/>
<path d="M146.552 103.448H137.931V112.069H146.552V103.448Z" fill="black"/>
<path d="M163.793 103.448H155.173V112.069H163.793V103.448Z" fill="black"/>
<path d="M172.414 103.448H163.793V112.069H172.414V103.448Z" fill="black"/>
<path d="M198.276 103.448H189.655V112.069H198.276V103.448Z" fill="black"/>
<path d="M215.517 103.448H206.897V112.069H215.517V103.448Z" fill="black"/>
<path d="M224.138 103.448H215.517V112.069H224.138V103.448Z" fill="black"/>
<path d="M232.759 103.448H224.138V112.069H232.759V103.448Z" fill="black"/>
<path d="M51.7242 112.069H43.1035V120.69H51.7242V112.069Z" fill="black"/>
<path d="M68.9657 112.069H60.345V120.69H68.9657V112.069Z" fill="black"/>
<path d="M112.069 112.069H103.448V120.69H112.069V112.069Z" fill="black"/>
<path d="M129.31 112.069H120.69V120.69H129.31V112.069Z" fill="black"/>
<path d="M137.931 112.069H129.31V120.69H137.931V112.069Z" fill="black"/>
<path d="M163.793 112.069H155.173V120.69H163.793V112.069Z" fill="black"/>
<path d="M172.414 112.069H163.793V120.69H172.414V112.069Z" fill="black"/>
<path d="M181.035 112.069H172.414V120.69H181.035V112.069Z" fill="black"/>
<path d="M224.138 112.069H215.517V120.69H224.138V112.069Z" fill="black"/>
<path d="M34.4828 120.69H25.8621V129.31H34.4828V120.69Z" fill="black"/>
<path d="M51.7242 120.69H43.1035V129.31H51.7242V120.69Z" fill="black"/>
<path d="M60.3448 120.69H51.7241V129.31H60.3448V120.69Z" fill="black"/>
<path d="M77.5863 120.69H68.9656V129.31H77.5863V120.69Z" fill="black"/>
<path d="M86.2069 120.69H77.5862V129.31H86.2069V120.69Z" fill="black"/>
<path d="M120.69 120.69H112.069V129.31H120.69V120.69Z" fill="black"/>
<path d="M129.31 120.69H120.69V129.31H129.31V120.69Z" fill="black"/>
<path d="M137.931 120.69H129.31V129.31H137.931V120.69Z" fill="black"/>
<path d="M155.172 120.69H146.552V129.31H155.172V120.69Z" fill="black"/>
<path d="M163.793 120.69H155.173V129.31H163.793V120.69Z" fill="black"/>
<path d="M172.414 120.69H163.793V129.31H172.414V120.69Z" fill="black"/>
<path d="M181.035 120.69H172.414V129.31H181.035V120.69Z" fill="black"/>
<path d="M189.655 120.69H181.035V129.31H189.655V120.69Z" fill="black"/>
<path d="M206.897 120.69H198.276V129.31H206.897V120.69Z" fill="black"/>
<path d="M224.138 120.69H215.517V129.31H224.138V120.69Z" fill="black"/>
<path d="M232.759 120.69H224.138V129.31H232.759V120.69Z" fill="black"/>
<path d="M60.3448 129.31H51.7241V137.931H60.3448V129.31Z" fill="black"/>
<path d="M103.448 129.31H94.8276V137.931H103.448V129.31Z" fill="black"/>
<path d="M120.69 129.31H112.069V137.931H120.69V129.31Z" fill="black"/>
<path d="M129.31 129.31H120.69V137.931H129.31V129.31Z" fill="black"/>
<path d="M137.931 129.31H129.31V137.931H137.931V129.31Z" fill="black"/>
<path d="M163.793 129.31H155.173V137.931H163.793V129.31Z" fill="black"/>
<path d="M172.414 129.31H163.793V137.931H172.414V129.31Z" fill="black"/>
<path d="M181.035 129.31H172.414V137.931H181.035V129.31Z" fill="black"/>
<path d="M206.897 129.31H198.276V137.931H206.897V129.31Z" fill="black"/>
<path d="M232.759 129.31H224.138V137.931H232.759V129.31Z" fill="black"/>
<path d="M25.8621 137.931H17.2415V146.552H25.8621V137.931Z" fill="black"/>
<path d="M68.9657 137.931H60.345V146.552H68.9657V137.931Z" fill="black"/>
<path d="M77.5863 137.931H68.9656V146.552H77.5863V137.931Z" fill="black"/>
<path d="M94.8277 137.931H86.207V146.552H94.8277V137.931Z" fill="black"/>
<path d="M120.69 137.931H112.069V146.552H120.69V137.931Z" fill="black"/>
<path d="M129.31 137.931H120.69V146.552H129.31V137.931Z" fill="black"/>
<path d="M146.552 137.931H137.931V146.552H146.552V137.931Z" fill="black"/>
<path d="M172.414 137.931H163.793V146.552H172.414V137.931Z" fill="black"/>
<path d="M189.655 137.931H181.035V146.552H189.655V137.931Z" fill="black"/>
<path d="M215.517 137.931H206.897V146.552H215.517V137.931Z" fill="black"/>
<path d="M224.138 137.931H215.517V146.552H224.138V137.931Z" fill="black"/>
<path d="M232.759 137.931H224.138V146.552H232.759V137.931Z" fill="black"/>
<path d="M34.4828 146.552H25.8621V155.172H34.4828V146.552Z" fill="black"/>
<path d="M43.1036 146.552H34.4829V155.172H43.1036V146.552Z" fill="black"/>
<path d="M51.7242 146.552H43.1035V155.172H51.7242V146.552Z" fill="black"/>
<path d="M68.9657 146.552H60.345V155.172H68.9657V146.552Z" fill="black"/>
<path d="M103.448 146.552H94.8276V155.172H103.448V146.552Z" fill="black"/>
<path d="M129.31 146.552H120.69V155.172H129.31V146.552Z" fill="black"/>
<path d="M137.931 146.552H129.31V155.172H137.931V146.552Z" fill="black"/>
<path d="M146.552 146.552H137.931V155.172H146.552V146.552Z" fill="black"/>
<path d="M155.172 146.552H146.552V155.172H155.172V146.552Z" fill="black"/>
<path d="M198.276 146.552H189.655V155.172H198.276V146.552Z" fill="black"/>
<path d="M224.138 146.552H215.517V155.172H224.138V146.552Z" fill="black"/>
<path d="M25.8621 155.172H17.2415V163.793H25.8621V155.172Z" fill="black"/>
<path d="M77.5863 155.172H68.9656V163.793H77.5863V155.172Z" fill="black"/>
<path d="M86.2069 155.172H77.5862V163.793H86.2069V155.172Z" fill="black"/>
<path d="M103.448 155.172H94.8276V163.793H103.448V155.172Z" fill="black"/>
<path d="M120.69 155.172H112.069V163.793H120.69V155.172Z" fill="black"/>
<path d="M129.31 155.172H120.69V163.793H129.31V155.172Z" fill="black"/>
<path d="M137.931 155.172H129.31V163.793H137.931V155.172Z" fill="black"/>
<path d="M163.793 155.172H155.173V163.793H163.793V155.172Z" fill="black"/>
<path d="M172.414 155.172H163.793V163.793H172.414V155.172Z" fill="black"/>
<path d="M181.035 155.172H172.414V163.793H181.035V155.172Z" fill="black"/>
<path d="M189.655 155.172H181.035V163.793H189.655V155.172Z" fill="black"/>
<path d="M198.276 155.172H189.655V163.793H198.276V155.172Z" fill="black"/>
<path d="M206.897 155.172H198.276V163.793H206.897V155.172Z" fill="black"/>
<path d="M94.8277 163.793H86.207V172.414H94.8277V163.793Z" fill="black"/>
<path d="M120.69 163.793H112.069V172.414H120.69V163.793Z" fill="black"/>
<path d="M137.931 163.793H129.31V172.414H137.931V163.793Z" fill="black"/>
<path d="M146.552 163.793H137.931V172.414H146.552V163.793Z" fill="black"/>
<path d="M155.172 163.793H146.552V172.414H155.172V163.793Z" fill="black"/>
<path d="M163.793 163.793H155.173V172.414H163.793V163.793Z" fill="black"/>
<path d="M198.276 163.793H189.655V172.414H198.276V163.793Z" fill="black"/>
<path d="M206.897 163.793H198.276V172.414H206.897V163.793Z" fill="black"/>
<path d="M224.138 163.793H215.517V172.414H224.138V163.793Z" fill="black"/>
<path d="M232.759 163.793H224.138V172.414H232.759V163.793Z" fill="black"/>
<path d="M112.069 172.414H103.448V181.035H112.069V172.414Z" fill="black"/>
<path d="M137.931 172.414H129.31V181.035H137.931V172.414Z" fill="black"/>
<path d="M163.793 172.414H155.173V181.035H163.793V172.414Z" fill="black"/>
<path d="M181.035 172.414H172.414V181.035H181.035V172.414Z" fill="black"/>
<path d="M198.276 172.414H189.655V181.035H198.276V172.414Z" fill="black"/>
<path d="M206.897 172.414H198.276V181.035H206.897V172.414Z" fill="black"/>
<path d="M224.138 172.414H215.517V181.035H224.138V172.414Z" fill="black"/>
<path d="M232.759 172.414H224.138V181.035H232.759V172.414Z" fill="black"/>
<path d="M103.448 181.034H94.8276V189.655H103.448V181.034Z" fill="black"/>
<path d="M120.69 181.034H112.069V189.655H120.69V181.034Z" fill="black"/>
<path d="M137.931 181.034H129.31V189.655H137.931V181.034Z" fill="black"/>
<path d="M163.793 181.034H155.173V189.655H163.793V181.034Z" fill="black"/>
<path d="M198.276 181.034H189.655V189.655H198.276V181.034Z" fill="black"/>
<path d="M206.897 181.034H198.276V189.655H206.897V181.034Z" fill="black"/>
<path d="M94.8277 189.655H86.207V198.276H94.8277V189.655Z" fill="black"/>
<path d="M103.448 189.655H94.8276V198.276H103.448V189.655Z" fill="black"/>
<path d="M112.069 189.655H103.448V198.276H112.069V189.655Z" fill="black"/>
<path d="M129.31 189.655H120.69V198.276H129.31V189.655Z" fill="black"/>
<path d="M137.931 189.655H129.31V198.276H137.931V189.655Z" fill="black"/>
<path d="M163.793 189.655H155.173V198.276H163.793V189.655Z" fill="black"/>
<path d="M172.414 189.655H163.793V198.276H172.414V189.655Z" fill="black"/>
<path d="M181.035 189.655H172.414V198.276H181.035V189.655Z" fill="black"/>
<path d="M189.655 189.655H181.035V198.276H189.655V189.655Z" fill="black"/>
<path d="M198.276 189.655H189.655V198.276H198.276V189.655Z" fill="black"/>
<path d="M206.897 189.655H198.276V198.276H206.897V189.655Z" fill="black"/>
<path d="M112.069 198.276H103.448V206.897H112.069V198.276Z" fill="black"/>
<path d="M129.31 198.276H120.69V206.897H129.31V198.276Z" fill="black"/>
<path d="M146.552 198.276H137.931V206.897H146.552V198.276Z" fill="black"/>
<path d="M163.793 198.276H155.173V206.897H163.793V198.276Z" fill="black"/>
<path d="M189.655 198.276H181.035V206.897H189.655V198.276Z" fill="black"/>
<path d="M198.276 198.276H189.655V206.897H198.276V198.276Z" fill="black"/>
<path d="M206.897 198.276H198.276V206.897H206.897V198.276Z" fill="black"/>
<path d="M215.517 198.276H206.897V206.897H215.517V198.276Z" fill="black"/>
<path d="M94.8277 206.897H86.207V215.517H94.8277V206.897Z" fill="black"/>
<path d="M112.069 206.897H103.448V215.517H112.069V206.897Z" fill="black"/>
<path d="M146.552 206.897H137.931V215.517H146.552V206.897Z" fill="black"/>
<path d="M155.172 206.897H146.552V215.517H155.172V206.897Z" fill="black"/>
<path d="M198.276 206.897H189.655V215.517H198.276V206.897Z" fill="black"/>
<path d="M232.759 206.897H224.138V215.517H232.759V206.897Z" fill="black"/>
<path d="M103.448 215.517H94.8276V224.138H103.448V215.517Z" fill="black"/>
<path d="M137.931 215.517H129.31V224.138H137.931V215.517Z" fill="black"/>
<path d="M146.552 215.517H137.931V224.138H146.552V215.517Z" fill="black"/>
<path d="M155.172 215.517H146.552V224.138H155.172V215.517Z" fill="black"/>
<path d="M163.793 215.517H155.173V224.138H163.793V215.517Z" fill="black"/>
<path d="M198.276 215.517H189.655V224.138H198.276V215.517Z" fill="black"/>
<path d="M206.897 215.517H198.276V224.138H206.897V215.517Z" fill="black"/>
<path d="M224.138 215.517H215.517V224.138H224.138V215.517Z" fill="black"/>
<path d="M94.8277 224.138H86.207V232.759H94.8277V224.138Z" fill="black"/>
<path d="M103.448 224.138H94.8276V232.759H103.448V224.138Z" fill="black"/>
<path d="M120.69 224.138H112.069V232.759H120.69V224.138Z" fill="black"/>
<path d="M129.31 224.138H120.69V232.759H129.31V224.138Z" fill="black"/>
<path d="M137.931 224.138H129.31V232.759H137.931V224.138Z" fill="black"/>
<path d="M163.793 224.138H155.173V232.759H163.793V224.138Z" fill="black"/>
<path d="M172.414 224.138H163.793V232.759H172.414V224.138Z" fill="black"/>
<path d="M181.035 224.138H172.414V232.759H181.035V224.138Z" fill="black"/>
<path d="M189.655 224.138H181.035V232.759H189.655V224.138Z" fill="black"/>
<path d="M224.138 224.138H215.517V232.759H224.138V224.138Z" fill="black"/>
<path d="M232.759 224.138H224.138V232.759H232.759V224.138Z" fill="black"/>
<path d="M68.5346 17.2414H26.2932H17.2415V26.2931V68.5345V77.5862H26.2932H68.5346H77.5863V68.5345V26.2931V17.2414H68.5346ZM68.5346 68.5345H26.2932V26.2931H68.5346V68.5345Z" fill="black"/>
<path d="M223.707 17.2414H181.466H172.414V26.2931V68.5345V77.5862H181.466H223.707H232.759V68.5345V26.2931V17.2414H223.707ZM223.707 68.5345H181.466V26.2931H223.707V68.5345Z" fill="black"/>
<path d="M68.5346 172.414H26.2932H17.2415V181.466V223.707V232.759H26.2932H68.5346H77.5863V223.707V181.466V172.414H68.5346ZM68.5346 223.707H26.2932V181.466H68.5346V223.707Z" fill="black"/>
<path d="M60.345 34.4828H34.4829V60.3448H60.345V34.4828Z" fill="black"/>
<path d="M215.517 34.4828H189.655V60.3448H215.517V34.4828Z" fill="black"/>
<path d="M60.345 189.655H34.4829V215.517H60.345V189.655Z" fill="black"/>
</g>
<defs>
<clipPath id="clip0_6_4160">
<rect width="250" height="250" fill="white"/>
</clipPath>
</defs>
</svg>
